<?xml version="1.0" encoding="UTF-8"?>
<svg width="1024" height="1024" viewBox="0 0 1024 1024" xmlns="http://www.w3.org/2000/svg">
  <!-- Gray background -->
  <rect width="1024" height="1024" rx="180" fill="#F5F5F5"/>

  <!-- Musical Note (left side - scaled up) -->
  <g id="music-note" transform="translate(150, 250)">
    <!-- Note head (chunkier ellipse) -->
    <ellipse cx="60" cy="360" rx="85" ry="65" transform="rotate(-20 60 360)" fill="#2196F3"/>
    <!-- Note stem (aligned with right edge of ellipse) -->
    <rect x="118" y="0" width="25" height="350" fill="#2196F3"/>
    <!-- Note flag -->
    <path d="M143 0 C143 0, 193 25, 218 75 C243 125, 218 175, 168 200 L143 170 Z" fill="#2196F3"/>
  </g>

  <!-- Play Button (right side - scaled up) -->
  <g id="play-button" transform="translate(580, 370)">
    <!-- Play triangle -->
    <path d="M0 0 L0 280 L230 140 Z" fill="#FF0000"/>
  </g>

  <!-- Sync Symbol (center - scaled up) -->
  <g id="sync-symbol" transform="translate(380, 430)">
    <!-- Upper sync arrow -->
    <path d="M0 25 C0 25, 120 -25, 220 25 L195 0 L220 25 L195 50"
          stroke="#4CAF50" stroke-width="20" fill="none" stroke-linecap="round"/>
    <!-- Lower sync arrow -->
    <path d="M220 100 C220 100, 100 150, 0 100 L25 125 L0 100 L25 75"
          stroke="#4CAF50" stroke-width="20" fill="none" stroke-linecap="round"/>
  </g>

  <!-- Subtle connecting line -->
  <line x1="320" y1="512" x2="580" y2="512" stroke="#DDDDDD" stroke-width="10" stroke-dasharray="25,12"/>
</svg>