<?xml version="1.0" encoding="UTF-8"?>
<svg width="1024" height="1024" viewBox="0 0 1024 1024" xmlns="http://www.w3.org/2000/svg">
  <!-- Background -->
  <rect width="1024" height="1024" rx="180" fill="#FFFFFF"/>
  
  <!-- Musical Note (left side) -->
  <g id="music-note" transform="translate(200, 300)">
    <!-- Note stem -->
    <rect x="80" y="0" width="20" height="300" fill="#2196F3"/>
    <!-- Note flag -->
    <path d="M100 0 C100 0, 140 20, 160 60 C180 100, 160 140, 120 160 L100 140 Z" fill="#2196F3"/>
    <!-- Note head -->
    <ellipse cx="50" cy="300" rx="50" ry="40" transform="rotate(-20 50 300)" fill="#2196F3"/>
  </g>
  
  <!-- Play Button (right side) -->
  <g id="play-button" transform="translate(600, 400)">
    <!-- Play triangle -->
    <path d="M0 0 L0 220 L180 110 Z" fill="#FF0000"/>
  </g>
  
  <!-- Sync Symbol (center) -->
  <g id="sync-symbol" transform="translate(400, 450)">
    <!-- Upper sync arrow -->
    <path d="M0 20 C0 20, 100 -20, 180 20 L160 0 L180 20 L160 40" 
          stroke="#666666" stroke-width="16" fill="none" stroke-linecap="round"/>
    <!-- Lower sync arrow -->
    <path d="M180 80 C180 80, 80 120, 0 80 L20 100 L0 80 L20 60" 
          stroke="#666666" stroke-width="16" fill="none" stroke-linecap="round"/>
  </g>
  
  <!-- Subtle connecting line -->
  <line x1="350" y1="512" x2="600" y2="512" stroke="#E0E0E0" stroke-width="8" stroke-dasharray="20,10"/>
</svg>